<svg xmlns="http://www.w3.org/2000/svg" width="13.65" height="13.65" viewBox="0 0 13.65 13.65">
  <g id="Bubble_brown" data-name="Bubble brown" transform="translate(0.5 0.5)">
    <circle id="Ellipse_2" data-name="Ellipse 2" cx="5.967" cy="5.967" r="5.967" transform="translate(0.551 0.368)" fill="#f9f5f5"/>
    <g id="Group_33" data-name="Group 33">
      <path id="Path_21" data-name="Path 21" d="M6.333,12.65c-1.691,0-4.482-1.834-4.482-1.834S0,8.166,0,6.345a6.325,6.325,0,1,1,6.334,6.3ZM12.06,6.342a5.75,5.75,0,1,0-5.772,5.741A5.73,5.73,0,0,0,12.06,6.342Z" transform="translate(0 0)" fill="#90c7d3" stroke="#90c7d3" stroke-width="1"/>
      <path id="Path_22" data-name="Path 22" d="M30.217,83.2c-.983,2.167-.892,4.217.792,5.951,1.719,1.77,3.8,1.923,6.023.911-1.186,1.236-4.15,1.606-6.174-.173a4.866,4.866,0,0,1-.641-6.689Z" transform="translate(-27.445 -80.188)" fill="#90c7d3"/>
      <path id="Path_23" data-name="Path 23" d="M163.268,38.923a4.8,4.8,0,0,0-4.309-2.951c-.524-.031-.354-.387-.378-.66-.021-.238-.014-.416.335-.433a4.623,4.623,0,0,1,4.352,4.045Z" transform="translate(-152.608 -32.874)" fill="#90c7d3"/>
    </g>
  </g>
</svg>
