<svg xmlns="http://www.w3.org/2000/svg" width="214.88" height="89.779" viewBox="0 0 214.88 89.779">
    <g id="Layer_1" transform="translate(-180.16 -80.247)">
        <g id="Group_65" data-name="Group 65">
        <path id="Path_33" data-name="Path 33" d="M216.08,145.96l14.86,15.28c15.88,16.33,43.53,8.77,48.87-13.37l4.69-19.42a28.933,28.933,0,0,0-34.12-35.1l-19.55,4.14c-22.28,4.72-30.63,32.14-14.75,48.47Z" fill="#eac3b9" />
        <path id="Path_34" data-name="Path 34" d="M298.7,135.61l.13-23.07c.14-24.65-26.94-39.79-47.87-26.76L232.6,97.21a31.321,31.321,0,0,0-.3,52.98l18.23,11.64C271.31,175.1,298.56,160.26,298.7,135.61Z" fill="none" stroke="#90c7d3" stroke-miterlimit="10" stroke-width="1.5" />
        </g>
        <g id="Group_68" data-name="Group 68">
        <path id="Path_50" data-name="Path 50" d="M180.16,135.66V110.8a34.706,34.706,0,0,1,6.33-.64c8.25,0,12.31,4.66,12.31,13.2,0,6.62-3.38,12.31-10.49,12.31h-8.15Zm3.56-3.38h4.59c4.73,0,6.94-4.2,6.94-8.93,0-6.26-2.74-9.78-8.75-9.78a19.93,19.93,0,0,0-2.77.21v18.5Z" />
        <path id="Path_51" data-name="Path 51" d="M214.66,134.2a11.068,11.068,0,0,1-5.66,1.71c-5.23,0-8.11-3.56-8.11-8.89,0-6.37,3.52-9.39,7.5-9.39,3.7,0,7.22,2.7,7.22,7.9a11.239,11.239,0,0,1-.46,3.09h-10.6a4.329,4.329,0,0,0,4.55,3.91,9.31,9.31,0,0,0,5.09-1.71l.46,3.38Zm-10.07-8.96h7.47c0-2.77-1.49-4.23-3.66-4.23S204.99,122.97,204.59,125.24Z" />
        <path id="Path_52" data-name="Path 52" d="M240.49,113.79H229.46v-3.38h15.33v3.38l-11.67,18.5h13.12v3.38H228.81v-3.38l11.67-18.5Z" />
        <path id="Path_53" data-name="Path 53" d="M262.29,134.2a11.068,11.068,0,0,1-5.66,1.71c-5.23,0-8.11-3.56-8.11-8.89,0-6.37,3.52-9.39,7.5-9.39,3.7,0,7.22,2.7,7.22,7.9a11.241,11.241,0,0,1-.46,3.09h-10.6a4.329,4.329,0,0,0,4.55,3.91,9.31,9.31,0,0,0,5.09-1.71l.46,3.38Zm-10.07-8.96h7.47c0-2.77-1.49-4.23-3.66-4.23S252.62,122.97,252.22,125.24Z" />
        <path id="Path_54" data-name="Path 54" d="M279.12,134.2a11.068,11.068,0,0,1-5.66,1.71c-5.23,0-8.11-3.56-8.11-8.89,0-6.37,3.52-9.39,7.5-9.39,3.7,0,7.22,2.7,7.22,7.9a11.241,11.241,0,0,1-.46,3.09h-10.6a4.329,4.329,0,0,0,4.55,3.91,9.31,9.31,0,0,0,5.09-1.71l.46,3.38Zm-10.07-8.96h7.47c0-2.77-1.49-4.23-3.66-4.23S269.45,122.97,269.05,125.24Z" />
        <path id="Path_55" data-name="Path 55" d="M286.27,142.77h-3.56v-24.9h3.31l.25,1.32a6.539,6.539,0,0,1,4.16-1.57c4.16,0,7.04,3.45,7.04,8.07v1.96c0,5.3-2.67,8.25-6.86,8.25a5.83,5.83,0,0,1-4.34-2.03v8.89Zm0-11.99a6.172,6.172,0,0,0,3.98,1.74c2.38,0,3.66-1.6,3.66-4.94v-1.85c0-3.06-1.53-4.73-3.7-4.73a5.682,5.682,0,0,0-3.95,1.81v7.97Z" />
        <path id="Path_56" data-name="Path 56" d="M301.35,135.66V121.25h-1.92v-3.38h1.92V114.7c0-3.56,2.13-5.37,5.23-5.37a7.41,7.41,0,0,1,2.7.53l-.5,3.2a6.423,6.423,0,0,0-1.92-.36c-1.1,0-1.96.5-1.96,2.13v3.02h4.23v3.38H304.9v14.41h-3.56Z" />
        <path id="Path_57" data-name="Path 57" d="M320.74,135.66l-.25-1.49a8.737,8.737,0,0,1-5.05,1.74,4.913,4.913,0,0,1-5.26-5.3c0-3.91,2.49-5.66,6.37-5.87l3.95-.21v-.92c0-1.99-1.53-2.6-3.38-2.6a15.379,15.379,0,0,0-5.48,1.21l-.43-3.45a17.187,17.187,0,0,1,5.94-1.14c3.63,0,6.9,1.49,6.9,5.8v12.24h-3.31Zm-7.01-5.05a1.879,1.879,0,0,0,2.03,1.92,9.113,9.113,0,0,0,4.73-1.57v-3.17l-3.88.21c-2.1.11-2.88,1.25-2.88,2.6Z" />
        <path id="Path_58" data-name="Path 58" d="M330.8,109.59v9.6a6.539,6.539,0,0,1,4.16-1.57c4.16,0,7.04,3.38,7.04,8v1.96c0,5.62-2.6,8.32-7.61,8.32a17.754,17.754,0,0,1-7.15-1.78V109.58h3.56Zm0,22.19a9.937,9.937,0,0,0,3.56.75c2.85,0,4.09-1.32,4.09-5.02v-1.85c0-3.06-1.53-4.66-3.7-4.66a5.682,5.682,0,0,0-3.95,1.81v8.96Z" />
        <path id="Path_59" data-name="Path 59" d="M353.99,121.4a4.22,4.22,0,0,0-1.67-.39,4.925,4.925,0,0,0-4.13,2.74v11.92h-3.56V117.89h3.31l.25,1.92a4.693,4.693,0,0,1,3.84-2.17,5.394,5.394,0,0,1,2.1.43l-.14,3.34Z" />
        <path id="Path_60" data-name="Path 60" d="M357.27,135.66V121.79c0-.39-.14-.53-.53-.53H355.6v-3.38h1.88c2.49,0,3.34.96,3.34,3.27v14.51h-3.56Zm1.17-25.36a2.53,2.53,0,1,1-2.52,2.53A2.539,2.539,0,0,1,358.44,110.3Z" />
        <path id="Path_61" data-name="Path 61" d="M377.44,134.2a11.068,11.068,0,0,1-5.66,1.71c-5.23,0-8.11-3.56-8.11-8.89,0-6.37,3.52-9.39,7.5-9.39,3.7,0,7.22,2.7,7.22,7.9a11.241,11.241,0,0,1-.46,3.09h-10.6a4.329,4.329,0,0,0,4.55,3.91,9.31,9.31,0,0,0,5.09-1.71l.46,3.38Zm-10.07-8.96h7.47c0-2.77-1.49-4.23-3.66-4.23S367.76,122.97,367.37,125.24Z" />
        <path id="Path_62" data-name="Path 62" d="M387.18,124.96l3.7-7.08h4.05l-4.05,7.75a4.9,4.9,0,0,1,2.13,3.13l2.03,6.9h-3.7l-1.71-5.8a1.8,1.8,0,0,0-2.06-1.53h-2.99v7.33h-3.56V109.59h3.56v15.37h2.6Z" />
        </g>
    </g>
</svg>