<svg xmlns="http://www.w3.org/2000/svg" width="252.908" height="63.544" viewBox="0 0 252.908 63.544">
  <g id="section_split" data-name="section split" transform="translate(0.5 0.5)">
    <g id="Bubble_brown" data-name="Bubble brown" transform="translate(117.408 13.818)">
      <circle id="Ellipse_2" data-name="Ellipse 2" cx="29.5" cy="29.5" r="29.5" transform="translate(-20 -12)" fill="#f9f5f5"/>
      <g id="Group_33" data-name="Group 33" transform="translate(-22.726 -13.818)">
        <path id="Path_21" data-name="Path 21" d="M31.315,62.544c-8.36.008-22.159-9.068-22.159-9.068S.014,40.374,0,31.371a31.272,31.272,0,1,1,31.315,31.17ZM59.627,31.356A28.431,28.431,0,1,0,31.088,59.74,28.328,28.328,0,0,0,59.627,31.356Z" transform="translate(0 0)" fill="#90c7d3" stroke="#90c7d3" stroke-width="1"/>
        <path id="Path_22" data-name="Path 22" d="M34.357,83.2c-4.859,10.716-4.412,20.85,3.916,29.421,8.5,8.75,18.772,9.51,29.777,4.5-5.862,6.11-20.52,7.941-30.524-.854C27.832,107.749,26.3,92.485,34.357,83.2Z" transform="translate(-20.65 -68.307)" fill="#90c7d3"/>
        <path id="Path_23" data-name="Path 23" d="M181.785,54.889c-4.617-9.48-11.691-14.029-21.3-14.591-2.59-.151-1.752-1.914-1.868-3.264-.1-1.178-.068-2.055,1.655-2.142,9.683-.5,20.865,9.442,21.518,20Z" transform="translate(-129.077 -24.98)" fill="#90c7d3"/>
      </g>
    </g>
    <g id="Bubble_brown-2" data-name="Bubble brown" transform="translate(188.368 21.801)">
      <circle id="Ellipse_2-2" data-name="Ellipse 2" cx="21.969" cy="21.969" r="21.969" transform="translate(-20.696 -12.464)" fill="#f9f5f5"/>
      <g id="Group_33-2" data-name="Group 33" transform="translate(-22.726 -13.818)">
        <path id="Path_21-2" data-name="Path 21" d="M23.32,46.577c-6.226.006-16.5-6.753-16.5-6.753S.01,30.067,0,23.363A23.289,23.289,0,1,1,23.32,46.576ZM44.406,23.351A21.173,21.173,0,1,0,23.152,44.49,21.1,21.1,0,0,0,44.406,23.351Z" transform="translate(0 0)" fill="#90c7d3" stroke="#90c7d3" stroke-width="1"/>
        <path id="Path_22-2" data-name="Path 22" d="M33.032,83.2c-3.618,7.981-3.285,15.527,2.916,21.91,6.331,6.516,13.98,7.082,22.176,3.354-4.365,4.551-15.282,5.914-22.732-.636-7.22-6.348-8.361-17.715-2.36-24.63Z" transform="translate(-22.825 -72.109)" fill="#90c7d3"/>
        <path id="Path_23-2" data-name="Path 23" d="M175.86,49.78c-3.439-7.06-8.707-10.448-15.864-10.866-1.929-.112-1.3-1.425-1.391-2.43-.077-.878-.051-1.53,1.233-1.6,7.211-.369,15.539,7.032,16.024,14.893Z" transform="translate(-136.607 -27.506)" fill="#90c7d3"/>
      </g>
    </g>
    <g id="Bubble_brown-3" data-name="Bubble brown" transform="translate(243.362 29.454)">
      <circle id="Ellipse_2-3" data-name="Ellipse 2" cx="14.75" cy="14.75" r="14.75" transform="translate(-21.363 -12.909)" fill="#f9f5f5"/>
      <g id="Group_33-3" data-name="Group 33" transform="translate(-22.726 -13.818)">
        <path id="Path_21-3" data-name="Path 21" d="M15.657,31.272c-4.18,0-11.079-4.534-11.079-4.534S.007,20.187,0,15.685A15.636,15.636,0,1,1,15.657,31.271ZM29.814,15.678A14.215,14.215,0,1,0,15.544,29.87,14.164,14.164,0,0,0,29.814,15.678Z" transform="translate(0 0)" fill="#90c7d3" stroke="#90c7d3" stroke-width="1"/>
        <path id="Path_22-3" data-name="Path 22" d="M31.762,83.2c-2.429,5.358-2.206,10.425,1.958,14.71,4.251,4.375,9.386,4.755,14.889,2.252-2.931,3.055-10.26,3.971-15.262-.427C28.5,95.475,27.733,87.843,31.762,83.2Z" transform="translate(-24.909 -75.753)" fill="#90c7d3"/>
        <path id="Path_23-3" data-name="Path 23" d="M170.179,44.882c-2.309-4.74-5.846-7.014-10.651-7.3-1.3-.075-.876-.957-.934-1.632-.052-.589-.034-1.028.828-1.071,4.842-.248,10.433,4.721,10.759,10Z" transform="translate(-143.825 -29.928)" fill="#90c7d3"/>
      </g>
    </g>
    <g id="Bubble_brown-4" data-name="Bubble brown" transform="translate(22.726 29.454)">
      <circle id="Ellipse_2-4" data-name="Ellipse 2" cx="14.75" cy="14.75" r="14.75" transform="translate(-21.363 -12.909)" fill="#f9f5f5"/>
      <g id="Group_33-4" data-name="Group 33" transform="translate(-22.726 -13.818)">
        <path id="Path_21-4" data-name="Path 21" d="M15.657,31.272c-4.18,0-11.079-4.534-11.079-4.534S.007,20.187,0,15.685A15.636,15.636,0,1,1,15.657,31.271ZM29.814,15.678A14.215,14.215,0,1,0,15.544,29.87,14.164,14.164,0,0,0,29.814,15.678Z" transform="translate(0 0)" fill="#90c7d3" stroke="#90c7d3" stroke-width="1"/>
        <path id="Path_22-4" data-name="Path 22" d="M31.762,83.2c-2.429,5.358-2.206,10.425,1.958,14.71,4.251,4.375,9.386,4.755,14.889,2.252-2.931,3.055-10.26,3.971-15.262-.427C28.5,95.475,27.733,87.843,31.762,83.2Z" transform="translate(-24.909 -75.753)" fill="#90c7d3"/>
        <path id="Path_23-4" data-name="Path 23" d="M170.179,44.882c-2.309-4.74-5.846-7.014-10.651-7.3-1.3-.075-.876-.957-.934-1.632-.052-.589-.034-1.028.828-1.071,4.842-.248,10.433,4.721,10.759,10Z" transform="translate(-143.825 -29.928)" fill="#90c7d3"/>
      </g>
    </g>
    <g id="Bubble_brown-5" data-name="Bubble brown" transform="translate(62.414 21.802)">
      <circle id="Ellipse_2-5" data-name="Ellipse 2" cx="21.969" cy="21.969" r="21.969" transform="translate(-20.696 -12.464)" fill="#f9f5f5"/>
      <g id="Group_33-5" data-name="Group 33" transform="translate(-22.726 -13.818)">
        <path id="Path_21-5" data-name="Path 21" d="M23.32,46.577c-6.226.006-16.5-6.753-16.5-6.753S.01,30.067,0,23.362A23.289,23.289,0,1,1,23.32,46.576ZM44.405,23.351A21.173,21.173,0,1,0,23.152,44.49,21.1,21.1,0,0,0,44.405,23.351Z" transform="translate(0 0)" fill="#90c7d3" stroke="#90c7d3" stroke-width="1"/>
        <path id="Path_22-5" data-name="Path 22" d="M33.032,83.2c-3.618,7.981-3.285,15.527,2.916,21.91,6.331,6.516,13.98,7.082,22.176,3.354-4.365,4.551-15.282,5.914-22.732-.636-7.22-6.348-8.361-17.715-2.36-24.63Z" transform="translate(-22.825 -72.109)" fill="#90c7d3"/>
        <path id="Path_23-5" data-name="Path 23" d="M175.86,49.78c-3.438-7.06-8.706-10.448-15.864-10.866-1.929-.112-1.3-1.425-1.391-2.43-.077-.878-.051-1.53,1.233-1.6,7.211-.369,15.539,7.031,16.024,14.893Z" transform="translate(-136.607 -27.506)" fill="#90c7d3"/>
      </g>
    </g>
  </g>
</svg>
