<svg xmlns="http://www.w3.org/2000/svg" width="24.511" height="25.533" viewBox="0 0 24.511 25.533">
  <path id="Icon_material-add-shopping-cart" data-name="Icon material-add-shopping-cart" d="M13.658,11.227H16.09V7.579h3.648V5.148H16.09V1.5H13.658V5.148H10.011V7.579h3.648ZM8.8,22.169A2.432,2.432,0,1,0,11.227,24.6,2.428,2.428,0,0,0,8.8,22.169Zm12.158,0A2.432,2.432,0,1,0,23.385,24.6,2.428,2.428,0,0,0,20.953,22.169ZM9,18.218l.036-.146,1.094-1.982H19.19a2.42,2.42,0,0,0,2.128-1.252l4.693-8.523L23.9,5.148h-.012L22.546,7.579,19.19,13.658H10.655L10.5,13.33,7.774,7.579,6.619,5.148,5.476,2.716H1.5V5.148H3.932l4.377,9.228L6.667,17.355a2.351,2.351,0,0,0-.3,1.167A2.439,2.439,0,0,0,8.8,20.953h14.59V18.522H9.306A.309.309,0,0,1,9,18.218Z" transform="translate(-1.5 -1.5)"/>
</svg>
