<svg xmlns="http://www.w3.org/2000/svg" width="22" height="22" viewBox="0 0 22 22">
    <g id="Group_33" data-name="Group 33" transform="translate(0.5 0.5)">
        <path id="Path_21" data-name="Path 21" d="M10.514,21c-2.807,0-7.44-3.045-7.44-3.045S0,13.556,0,10.533A10.5,10.5,0,1,1,10.514,21Zm9.506-10.472a9.546,9.546,0,1,0-9.582,9.531,9.512,9.512,0,0,0,9.582-9.531Z" transform="translate(0 0)" fill="#f9f9f9" stroke="#f9f9f9" stroke-width="1"/>
        <path id="Path_22" data-name="Path 22" d="M30.993,83.2c-1.709,3.77-1.552,7.334,1.377,10.349,2.99,3.078,6.6,3.345,10.474,1.584-2.062,2.149-7.218,2.793-10.737-.3-3.41-3-3.949-8.367-1.115-11.634Z" transform="translate(-26.172 -78.961)" fill="#f9f9f9"/>
        <path id="Path_23" data-name="Path 23" d="M166.738,41.916a8.346,8.346,0,0,0-7.493-5.132c-.911-.053-.616-.673-.657-1.148-.036-.414-.024-.723.582-.753,3.406-.174,7.339,3.321,7.569,7.034Z" transform="translate(-148.948 -31.628)" fill="#f9f9f9"/>
    </g>
</svg>