<svg xmlns="http://www.w3.org/2000/svg" width="17.023" height="16.317" viewBox="0 0 17.023 16.317">
  <path id="star-svgrepo-com" d="M8.773,1.527l1.8,3.657a.861.861,0,0,0,.649.471l4.035.586a.862.862,0,0,1,.478,1.47l-2.92,2.846a.862.862,0,0,0-.248.763l.689,4.019a.862.862,0,0,1-1.25.908L8.4,14.35a.863.863,0,0,0-.8,0l-3.609,1.9a.862.862,0,0,1-1.25-.908l.689-4.019a.862.862,0,0,0-.248-.763L.262,7.711a.861.861,0,0,1,.478-1.47l4.035-.586a.861.861,0,0,0,.649-.471l1.8-3.657A.861.861,0,0,1,8.773,1.527Z" transform="translate(0.511 -0.547)" fill="#ED8A19" stroke="#ed8a19" stroke-width="1"/>
</svg>
