<svg xmlns="http://www.w3.org/2000/svg" width="15" height="10" viewBox="0 0 12.156 7.753">
    <path id="Icon_weather-direction-right" data-name="Icon weather-direction-right" d="M11.928,17.232a.951.951,0,0,0,.276.684.811.811,0,0,0,.672.24h7.9l-1.236,1.3a.928.928,0,0,0,0,1.344.931.931,0,0,0,.7.276.851.851,0,0,0,.636-.324l2.94-2.892a.931.931,0,0,0,.276-.7,1,1,0,0,0-.288-.7L20.832,13.6a.806.806,0,0,0-.648-.276.922.922,0,0,0-.684.264.879.879,0,0,0-.276.672.932.932,0,0,0,.276.684l1.272,1.3H12.864a.925.925,0,0,0-.672.3A1.01,1.01,0,0,0,11.928,17.232Z" transform="translate(-11.928 -13.319)"/>
</svg>