<svg xmlns="http://www.w3.org/2000/svg" width="33.736" height="33.736" viewBox="0 0 33.736 33.736">
    <path id="Icon_material-person-outline" data-name="Icon material-person-outline" d="M22.868,10.006a4.428,4.428,0,1,1-4.428,4.428,4.427,4.427,0,0,1,4.428-4.428m0,18.977c6.262,0,12.862,3.078,12.862,4.428V35.73H10.006V33.411c0-1.349,6.6-4.428,12.862-4.428M22.868,6A8.434,8.434,0,1,0,31.3,14.434,8.432,8.432,0,0,0,22.868,6Zm0,18.977C17.238,24.977,6,27.8,6,33.411v6.326H39.736V33.411C39.736,27.8,28.5,24.977,22.868,24.977Z" transform="translate(-6 -6)" fill="#898787" />
</svg>