<?xml version="1.0" encoding="UTF-8"?>
<svg id="Layer_1" data-name="Layer 1" xmlns="http://www.w3.org/2000/svg" viewBox="0 0 214.88 90.28">
  <defs>
    <style>
      .cls-1 {
        fill: #fff;
      }

      .cls-2, .cls-3 {
        fill: none;
        stroke: #fff;
        stroke-miterlimit: 10;
      }

      .cls-3 {
        stroke-width: 1.5px;
      }
    </style>
  </defs>
  <g id="Layer_1-2" data-name="Layer 1">
    <g id="Group_65" data-name="Group 65">
      <path id="Path_33" data-name="Path 33" class="cls-2" d="m35.92,65.71l14.86,15.28c15.88,16.33,43.53,8.77,48.87-13.37l4.69-19.42c3.75-15.53-5.8-31.17-21.33-34.92-4.2-1.01-8.57-1.08-12.79-.18l-19.55,4.14c-22.28,4.72-30.63,32.14-14.75,48.47h0Z"/>
      <path id="Path_34" data-name="Path 34" class="cls-3" d="m118.54,55.36l.13-23.07c.14-24.65-26.94-39.79-47.87-26.76l-18.36,11.43c-14.68,9.15-19.17,28.46-10.02,43.15,2.47,3.96,5.79,7.32,9.72,9.83l18.23,11.64c20.78,13.27,48.03-1.57,48.17-26.22Z"/>
    </g>
    <g id="Group_68" data-name="Group 68">
      <path id="Path_50" data-name="Path 50" class="cls-1" d="m0,55.41v-24.86c2.09-.41,4.2-.62,6.33-.64,8.25,0,12.31,4.66,12.31,13.2,0,6.62-3.38,12.31-10.49,12.31H0Zm3.56-3.39h4.59c4.73,0,6.94-4.2,6.94-8.93,0-6.26-2.74-9.78-8.75-9.78-.93,0-1.85.08-2.77.21v18.5h0Z"/>
      <path id="Path_51" data-name="Path 51" class="cls-1" d="m34.5,53.95c-1.7,1.07-3.65,1.66-5.66,1.71-5.23,0-8.11-3.56-8.11-8.89,0-6.37,3.52-9.39,7.5-9.39,3.7,0,7.22,2.7,7.22,7.9,0,1.05-.16,2.09-.46,3.09h-10.6c.22,2.31,2.23,4.04,4.55,3.91,1.83-.06,3.6-.65,5.09-1.71l.46,3.38h.01Zm-10.07-8.96h7.47c0-2.77-1.49-4.23-3.66-4.23s-3.41,1.96-3.81,4.23Z"/>
      <path id="Path_52" data-name="Path 52" class="cls-1" d="m60.33,33.54h-11.03v-3.38h15.33v3.38l-11.67,18.5h13.12v3.38h-17.43v-3.38l11.67-18.5h.01Z"/>
      <path id="Path_53" data-name="Path 53" class="cls-1" d="m82.13,53.95c-1.7,1.07-3.65,1.66-5.66,1.71-5.23,0-8.11-3.56-8.11-8.89,0-6.37,3.52-9.39,7.5-9.39,3.7,0,7.22,2.7,7.22,7.9,0,1.05-.16,2.09-.46,3.09h-10.6c.22,2.31,2.23,4.04,4.55,3.91,1.83-.06,3.6-.65,5.09-1.71l.46,3.38h.01Zm-10.07-8.96h7.47c0-2.77-1.49-4.23-3.66-4.23s-3.41,1.96-3.81,4.23Z"/>
      <path id="Path_54" data-name="Path 54" class="cls-1" d="m98.96,53.95c-1.7,1.07-3.65,1.66-5.66,1.71-5.23,0-8.11-3.56-8.11-8.89,0-6.37,3.52-9.39,7.5-9.39,3.7,0,7.22,2.7,7.22,7.9,0,1.05-.16,2.09-.46,3.09h-10.6c.22,2.31,2.23,4.04,4.55,3.91,1.83-.06,3.6-.65,5.09-1.71l.46,3.38h.01Zm-10.07-8.96h7.47c0-2.77-1.49-4.23-3.66-4.23s-3.41,1.96-3.81,4.23Z"/>
      <path id="Path_55" data-name="Path 55" class="cls-1" d="m106.11,62.52h-3.56v-24.9h3.31l.25,1.32c1.16-.99,2.63-1.55,4.16-1.57,4.16,0,7.04,3.45,7.04,8.07v1.96c0,5.3-2.67,8.25-6.86,8.25-1.67-.02-3.25-.76-4.34-2.03v8.89h0Zm0-11.98c1.07,1.04,2.49,1.66,3.98,1.74,2.38,0,3.66-1.6,3.66-4.94v-1.85c0-3.06-1.53-4.73-3.7-4.73-1.5.06-2.93.71-3.95,1.81v7.97h.01Z"/>
      <path id="Path_56" data-name="Path 56" class="cls-1" d="m121.19,55.41v-14.41h-1.92v-3.38h1.92v-3.17c0-3.56,2.13-5.37,5.23-5.37.93,0,1.84.19,2.7.53l-.5,3.2c-.62-.22-1.27-.34-1.92-.36-1.1,0-1.96.5-1.96,2.13v3.02h4.23v3.38h-4.23v14.41h-3.56v.02Z"/>
      <path id="Path_57" data-name="Path 57" class="cls-1" d="m140.58,55.41l-.25-1.49c-1.46,1.09-3.23,1.7-5.05,1.74-2.71.2-5.06-1.83-5.26-4.54-.02-.25-.02-.51,0-.76,0-3.91,2.49-5.66,6.37-5.87l3.95-.21v-.92c0-1.99-1.53-2.6-3.38-2.6-1.89.06-3.74.47-5.48,1.21l-.43-3.45c1.9-.73,3.91-1.11,5.94-1.14,3.63,0,6.9,1.49,6.9,5.8v12.24h-3.31Zm-7.01-5.06c-.03,1.04.79,1.9,1.83,1.93.07,0,.13,0,.2,0,1.69-.07,3.33-.62,4.73-1.57v-3.17l-3.88.21c-2.1.11-2.88,1.25-2.88,2.6h0Z"/>
      <path id="Path_58" data-name="Path 58" class="cls-1" d="m150.64,29.34v9.6c1.16-.99,2.63-1.55,4.16-1.57,4.16,0,7.04,3.38,7.04,8v1.96c0,5.62-2.6,8.32-7.61,8.32-2.48-.09-4.92-.69-7.15-1.78v-24.54h3.56,0Zm0,22.2c1.13.47,2.34.72,3.56.75,2.85,0,4.09-1.32,4.09-5.02v-1.85c0-3.06-1.53-4.66-3.7-4.66-1.5.06-2.93.71-3.95,1.81v8.96h0Z"/>
      <path id="Path_59" data-name="Path 59" class="cls-1" d="m173.83,41.15c-.52-.24-1.09-.38-1.67-.39-1.77.1-3.35,1.15-4.13,2.74v11.92h-3.56v-17.78h3.31l.25,1.92c.84-1.32,2.28-2.13,3.84-2.17.72,0,1.44.15,2.1.43l-.14,3.34h0Z"/>
      <path id="Path_60" data-name="Path 60" class="cls-1" d="m177.11,55.41v-13.87c0-.39-.14-.53-.53-.53h-1.14v-3.38h1.88c2.49,0,3.34.96,3.34,3.27v14.51h-3.56,0Zm1.17-25.36c1.4,0,2.53,1.12,2.54,2.52,0,1.4-1.12,2.53-2.52,2.54s-2.53-1.12-2.54-2.52c0,0,0,0,0,0,0-1.39,1.13-2.52,2.52-2.53Z"/>
      <path id="Path_61" data-name="Path 61" class="cls-1" d="m197.28,53.95c-1.7,1.07-3.65,1.66-5.66,1.71-5.23,0-8.11-3.56-8.11-8.89,0-6.37,3.52-9.39,7.5-9.39,3.7,0,7.22,2.7,7.22,7.9,0,1.05-.16,2.09-.46,3.09h-10.6c.22,2.31,2.23,4.04,4.55,3.91,1.83-.06,3.6-.65,5.09-1.71l.46,3.38h.01Zm-10.07-8.96h7.47c0-2.77-1.49-4.23-3.66-4.23s-3.42,1.96-3.81,4.23Z"/>
      <path id="Path_62" data-name="Path 62" class="cls-1" d="m207.02,44.71l3.7-7.08h4.05l-4.05,7.75c1.1.72,1.87,1.84,2.13,3.13l2.03,6.9h-3.7l-1.71-5.8c-.14-.98-1.05-1.67-2.03-1.53,0,0-.02,0-.03,0h-2.99v7.33h-3.56v-26.07h3.56v15.37h2.6,0Z"/>
    </g>
  </g>
</svg>